<?xml version="1.0" standalone="no"?>
<!DOCTYPE svg PUBLIC "-//W3C//DTD SVG 20010904//EN"
 "http://www.w3.org/TR/2001/REC-SVG-20010904/DTD/svg10.dtd">
<svg version="1.0" xmlns="http://www.w3.org/2000/svg"
 width="984.000000pt" height="270.000000pt" viewBox="0 0 984.000000 270.000000"
 preserveAspectRatio="xMidYMid meet">

<g transform="translate(0.000000,270.000000) scale(0.100000,-0.100000)"
fill="#000000" stroke="none">
<path d="M1300 2603 c-19 -3 -75 -13 -123 -24 -410 -91 -769 -418 -907 -827
-98 -294 -81 -639 45 -917 92 -202 272 -418 440 -529 215 -143 408 -204 677
-213 209 -7 367 22 539 99 l70 31 -51 29 c-93 53 -142 159 -124 264 4 27 8 53
9 57 0 4 -72 61 -160 126 l-160 118 -40 -18 c-113 -49 -219 -29 -302 56 -100
103 -109 239 -23 352 84 110 245 136 360 58 l50 -34 117 92 c65 50 132 102
149 117 l30 26 -17 40 c-26 58 -24 148 5 209 62 134 247 174 369 80 52 -39 87
-115 87 -187 0 -98 -46 -174 -135 -221 -55 -29 -154 -29 -211 0 l-40 21 -156
-121 -155 -122 15 -43 c19 -58 12 -138 -20 -201 l-25 -52 155 -114 156 -113
32 28 c41 35 95 54 159 54 115 1 210 -72 242 -184 l16 -61 40 38 c53 51 158
212 201 305 179 394 144 857 -92 1218 -190 291 -499 496 -837 554 -83 15 -294
19 -385 9z"/>
<path d="M8280 1960 l0 -90 100 0 100 0 0 90 0 90 -100 0 -100 0 0 -90z"/>
<path d="M7610 1840 l0 -130 -125 0 -125 0 0 -100 0 -100 125 0 125 0 0 -305
0 -305 100 0 100 0 0 305 0 305 170 0 170 0 0 100 0 100 -170 0 -170 0 0 130
0 130 -100 0 -100 0 0 -130z"/>
<path d="M3212 1433 l3 -278 28 -56 c33 -69 99 -132 175 -167 57 -27 58 -27
340 -30 l282 -3 30 30 30 29 0 376 0 376 -95 0 -95 0 0 -310 0 -310 -172 0
c-95 0 -191 5 -213 11 -50 14 -102 63 -115 109 -5 19 -10 140 -10 268 l0 232
-96 0 -95 0 3 -277z"/>
<path d="M4475 1696 c-91 -29 -140 -70 -174 -146 -20 -43 -21 -64 -21 -472 l0
-428 95 0 95 0 0 410 c0 397 1 411 20 430 19 19 33 20 234 20 231 0 238 -2
252 -54 3 -13 4 -91 2 -174 -3 -129 -6 -154 -21 -169 -15 -16 -42 -18 -212
-21 l-195 -4 0 -94 0 -94 193 0 c222 0 269 9 335 66 80 68 87 91 90 317 3 161
1 206 -13 246 -21 63 -73 123 -133 153 -45 22 -59 23 -277 25 -167 2 -241 -1
-270 -11z"/>
<path d="M5404 1700 c-12 -4 -31 -21 -43 -36 -21 -26 -21 -34 -21 -395 l0
-369 100 0 100 0 0 306 0 305 203 -3 c190 -3 204 -4 233 -25 60 -43 64 -64 64
-337 l0 -246 100 0 100 0 0 228 c0 125 -4 253 -10 286 -24 148 -126 253 -278
285 -62 13 -516 14 -548 1z"/>
<path d="M6593 1701 c-52 -13 -118 -57 -145 -98 -47 -69 -53 -104 -53 -309 l0
-190 30 -60 c33 -64 95 -115 163 -134 20 -5 124 -10 230 -10 l192 0 0 95 0 95
-193 0 c-253 0 -237 -15 -237 212 0 152 2 167 21 192 l20 26 210 0 c118 0 218
-4 229 -10 43 -23 43 -117 0 -140 -10 -6 -104 -10 -209 -10 l-191 0 0 -96 0
-96 213 4 c198 3 215 5 259 26 162 80 198 317 66 439 -13 12 -46 32 -73 45
-47 22 -63 23 -275 25 -124 1 -239 -2 -257 -6z"/>
<path d="M8280 1305 l0 -405 100 0 100 0 0 405 0 405 -100 0 -100 0 0 -405z"/>
<path d="M8701 1619 c215 -235 259 -284 259 -292 0 -4 -86 -101 -190 -215
l-191 -207 132 -3 132 -3 71 78 c39 43 98 106 131 140 l60 63 128 -140 128
-140 137 0 c75 0 132 4 126 8 -26 18 -385 414 -382 422 2 5 68 79 146 164 79
86 155 170 169 186 l25 30 -134 -1 -133 0 -104 -115 c-57 -62 -107 -114 -111
-114 -4 0 -53 52 -110 115 l-104 115 -134 0 -134 0 83 -91z"/>
</g>
</svg>
